# Blender v2.68 (sub 0) OBJ File: 'Mirror 1.blend'
# www.blender.org
mtllib star.mtl
o Star
v 0.000000 0.549600 0.000000
v 0.000000 -0.549600 0.000000
v 0.974992 0.000000 -1.002075
v -3.981215 0.000000 -1.158858
v -3.006224 0.000000 2.979140
v 2.979141 0.000000 2.979140
v 3.954000 0.000000 -1.100000
v -0.027083 0.000000 -4.008298
v -1.029158 0.000000 -1.029158
v 1.354155 0.000000 0.433329
v -1.272905 0.000000 0.379163
v 0.027000 0.000000 1.245000
vn -0.383937 -0.914447 0.127979
vn 0.016202 -0.869939 0.492893
vn -0.233631 -0.887972 -0.396134
vn -0.436374 -0.855567 0.278536
vn 0.452231 -0.839400 0.301487
vn 0.245677 -0.867460 -0.432615
vn -0.021420 -0.872838 0.487541
vn 0.368224 -0.921450 0.123857
vn -0.222769 -0.893614 -0.389651
vn 0.233171 -0.887732 -0.396942
vn -0.383937 0.914447 0.127979
vn 0.016202 0.869939 0.492893
vn -0.233631 0.887972 -0.396134
vn -0.436374 0.855567 0.278536
vn 0.452231 0.839400 0.301487
vn 0.245677 0.867460 -0.432615
vn -0.021420 0.872837 0.487541
vn 0.368224 0.921450 0.123857
vn -0.222769 0.893614 -0.389651
vn 0.233171 0.887732 -0.396942
usemtl GlowStar
s off
f 3//1 1//1 8//1
f 1//2 3//2 7//2
f 10//3 1//3 7//3
f 1//4 10//4 6//4
f 11//5 1//5 5//5
f 1//6 11//6 4//6
f 9//7 1//7 4//7
f 1//8 9//8 8//8
f 1//9 12//9 5//9
f 12//10 1//10 6//10
f 3//11 8//11 2//11
f 2//12 7//12 3//12
f 10//13 7//13 2//13
f 2//14 6//14 10//14
f 11//15 5//15 2//15
f 2//16 4//16 11//16
f 9//17 4//17 2//17
f 2//18 8//18 9//18
f 2//19 5//19 12//19
f 12//20 6//20 2//20
